<mxfile host="app.diagrams.net" agent="Mozilla/5.0 (Windows NT 10.0; Win64; x64) AppleWebKit/537.36 (KHTML, like Gecko) Chrome/127.0.0.0 Safari/537.36" version="24.7.7">
  <diagram name="Page-1" id="Ji5iZTQCRhClbAm7nzzr">
    <mxGraphModel dx="3497" dy="3190" grid="1" gridSize="10" guides="1" tooltips="1" connect="1" arrows="1" fold="1" page="1" pageScale="1" pageWidth="850" pageHeight="1100" math="0" shadow="0">
      <root>
        <mxCell id="0" />
        <mxCell id="1" parent="0" />
        <mxCell id="4sgGOVwR37v_2rBWzzxj-3" value="WELCOME TO ENGINEERING FEE MANAGEMENT SYSTEM" style="rounded=0;whiteSpace=wrap;html=1;" vertex="1" parent="1">
          <mxGeometry x="-65" y="-190" width="490" height="90" as="geometry" />
        </mxCell>
        <mxCell id="4sgGOVwR37v_2rBWzzxj-5" value="&lt;b&gt;&lt;font style=&quot;font-size: 24px;&quot;&gt;ENGINEERING FEE MANAGEMENT SYSTEM&lt;/font&gt;&lt;/b&gt;" style="text;html=1;align=center;verticalAlign=middle;resizable=0;points=[];autosize=1;strokeColor=none;fillColor=none;" vertex="1" parent="1">
          <mxGeometry x="-81" y="-560" width="530" height="40" as="geometry" />
        </mxCell>
        <mxCell id="4sgGOVwR37v_2rBWzzxj-8" value="FEE MAIN MENU&lt;div&gt;{G-General Module,P-Payment Module ,Report Module,E-Quit Module}&lt;/div&gt;" style="rounded=0;whiteSpace=wrap;html=1;" vertex="1" parent="1">
          <mxGeometry x="-65" y="20" width="500" height="140" as="geometry" />
        </mxCell>
        <mxCell id="4sgGOVwR37v_2rBWzzxj-16" value="&lt;div&gt;&lt;br&gt;&lt;/div&gt;" style="rounded=1;whiteSpace=wrap;html=1;" vertex="1" parent="1">
          <mxGeometry x="-840" y="350" width="530" height="480" as="geometry" />
        </mxCell>
        <mxCell id="4sgGOVwR37v_2rBWzzxj-17" value="&lt;font style=&quot;font-size: 10px;&quot;&gt;S-Branch Selection&lt;/font&gt;&lt;div&gt;&lt;span style=&quot;font-size: 6px; background-color: initial;&quot;&gt;//As per branch&amp;nbsp; selection&amp;nbsp;&lt;/span&gt;&lt;span style=&quot;font-size: 6px; background-color: initial;&quot;&gt;added to total fee&lt;/span&gt;&lt;div&gt;&lt;span style=&quot;background-color: initial;&quot;&gt;&lt;font style=&quot;font-size: 6px;&quot;&gt;{CSE-50000&lt;/font&gt;&lt;/span&gt;&lt;/div&gt;&lt;div&gt;&lt;span style=&quot;background-color: initial;&quot;&gt;&lt;font style=&quot;font-size: 6px;&quot;&gt;ECE-48000&lt;/font&gt;&lt;/span&gt;&lt;/div&gt;&lt;div&gt;&lt;span style=&quot;background-color: initial;&quot;&gt;&lt;font style=&quot;font-size: 6px;&quot;&gt;ME-47000&lt;/font&gt;&lt;/span&gt;&lt;/div&gt;&lt;div&gt;&lt;span style=&quot;background-color: initial;&quot;&gt;&lt;font style=&quot;font-size: 6px;&quot;&gt;CE&lt;/font&gt;&lt;font style=&quot;font-size: 6px;&quot;&gt;-45000}&lt;/font&gt;&lt;/span&gt;&lt;/div&gt;&lt;/div&gt;" style="rounded=1;whiteSpace=wrap;html=1;arcSize=17;" vertex="1" parent="1">
          <mxGeometry x="-800" y="598" width="130" height="100" as="geometry" />
        </mxCell>
        <mxCell id="4sgGOVwR37v_2rBWzzxj-24" value="&lt;font style=&quot;font-size: 10px;&quot;&gt;&lt;font style=&quot;&quot;&gt;F&lt;/font&gt;&lt;font style=&quot;&quot;&gt;-Miscellaneous Fee&lt;/font&gt;&lt;/font&gt;&lt;div&gt;&lt;font style=&quot;font-size: 6px;&quot;&gt;//As per selected facilities and gives input , these fees wiil be added to total fee&lt;/font&gt;&lt;/div&gt;&lt;div&gt;&lt;font style=&quot;font-size: 6px;&quot;&gt;{1-Library Fee-1000&lt;/font&gt;&lt;/div&gt;&lt;div&gt;&lt;font style=&quot;font-size: 6px;&quot;&gt;2-Transport Fee-500&lt;/font&gt;&lt;/div&gt;&lt;div&gt;&lt;span style=&quot;font-size: 6px; background-color: initial;&quot;&gt;3-Mess Fee-2000&lt;/span&gt;&lt;/div&gt;&lt;div&gt;&lt;span style=&quot;background-color: initial; font-size: 6px;&quot;&gt;4-Special Fee-User Input}&lt;/span&gt;&lt;/div&gt;" style="rounded=1;whiteSpace=wrap;html=1;" vertex="1" parent="1">
          <mxGeometry x="-620" y="598" width="120" height="100" as="geometry" />
        </mxCell>
        <mxCell id="4sgGOVwR37v_2rBWzzxj-25" value="&lt;font style=&quot;font-size: 10px;&quot;&gt;E-Return To Mainmenu&lt;/font&gt;" style="rounded=1;whiteSpace=wrap;html=1;" vertex="1" parent="1">
          <mxGeometry x="-465" y="598" width="120" height="100" as="geometry" />
        </mxCell>
        <mxCell id="4sgGOVwR37v_2rBWzzxj-26" value="&lt;div&gt;&lt;br&gt;&lt;/div&gt;&lt;div&gt;&lt;br&gt;&lt;/div&gt;&lt;div&gt;&lt;br&gt;&lt;/div&gt;&lt;div&gt;&lt;br&gt;&lt;/div&gt;&lt;div&gt;&lt;br&gt;&lt;/div&gt;&lt;div&gt;&lt;br&gt;&lt;/div&gt;&lt;div&gt;&lt;br&gt;&lt;/div&gt;&lt;div&gt;&lt;br&gt;&lt;/div&gt;&lt;div&gt;&lt;br&gt;&lt;/div&gt;&lt;div&gt;&lt;br&gt;&lt;/div&gt;&lt;div&gt;&lt;br&gt;&lt;/div&gt;&lt;div&gt;&lt;br&gt;&lt;/div&gt;&lt;div&gt;&lt;br&gt;&lt;/div&gt;" style="rounded=1;whiteSpace=wrap;html=1;" vertex="1" parent="1">
          <mxGeometry x="-281" y="346" width="500" height="494" as="geometry" />
        </mxCell>
        <mxCell id="4sgGOVwR37v_2rBWzzxj-47" value="T-Total Amount To Be Paid&lt;div&gt;&lt;font style=&quot;font-size: 6px;&quot;&gt;(It calculates total amount based on selected options and displays)&lt;/font&gt;&lt;/div&gt;" style="rounded=1;whiteSpace=wrap;html=1;" vertex="1" parent="1">
          <mxGeometry x="-262" y="594" width="120" height="90" as="geometry" />
        </mxCell>
        <mxCell id="4sgGOVwR37v_2rBWzzxj-50" value="&lt;div&gt;G-General Module&lt;div&gt;{S-Select the Branch,F-Miscellaneous Fee,E-Return to Main Menu}&lt;/div&gt;&lt;/div&gt;" style="rounded=1;whiteSpace=wrap;html=1;" vertex="1" parent="1">
          <mxGeometry x="-805" y="385" width="460" height="90" as="geometry" />
        </mxCell>
        <mxCell id="4sgGOVwR37v_2rBWzzxj-52" style="edgeStyle=orthogonalEdgeStyle;rounded=0;orthogonalLoop=1;jettySize=auto;html=1;exitX=0.5;exitY=1;exitDx=0;exitDy=0;" edge="1" parent="1" source="4sgGOVwR37v_2rBWzzxj-50" target="4sgGOVwR37v_2rBWzzxj-50">
          <mxGeometry relative="1" as="geometry" />
        </mxCell>
        <mxCell id="4sgGOVwR37v_2rBWzzxj-57" value="" style="endArrow=none;html=1;rounded=0;" edge="1" parent="1">
          <mxGeometry width="50" height="50" relative="1" as="geometry">
            <mxPoint x="-568" y="475" as="sourcePoint" />
            <mxPoint x="-568" y="555" as="targetPoint" />
          </mxGeometry>
        </mxCell>
        <mxCell id="4sgGOVwR37v_2rBWzzxj-65" value="" style="endArrow=none;html=1;rounded=0;" edge="1" parent="1">
          <mxGeometry width="50" height="50" relative="1" as="geometry">
            <mxPoint x="-391" y="555" as="sourcePoint" />
            <mxPoint x="-741" y="554" as="targetPoint" />
          </mxGeometry>
        </mxCell>
        <mxCell id="4sgGOVwR37v_2rBWzzxj-66" value="" style="endArrow=classic;html=1;rounded=0;" edge="1" parent="1">
          <mxGeometry width="50" height="50" relative="1" as="geometry">
            <mxPoint x="-739" y="556" as="sourcePoint" />
            <mxPoint x="-739" y="596" as="targetPoint" />
          </mxGeometry>
        </mxCell>
        <mxCell id="4sgGOVwR37v_2rBWzzxj-67" value="" style="endArrow=classic;html=1;rounded=0;" edge="1" parent="1">
          <mxGeometry width="50" height="50" relative="1" as="geometry">
            <mxPoint x="-567.3399999999999" y="557" as="sourcePoint" />
            <mxPoint x="-567.3399999999999" y="597" as="targetPoint" />
          </mxGeometry>
        </mxCell>
        <mxCell id="4sgGOVwR37v_2rBWzzxj-68" value="" style="endArrow=classic;html=1;rounded=0;" edge="1" parent="1">
          <mxGeometry width="50" height="50" relative="1" as="geometry">
            <mxPoint x="-393.34" y="557" as="sourcePoint" />
            <mxPoint x="-393.34" y="597" as="targetPoint" />
          </mxGeometry>
        </mxCell>
        <mxCell id="4sgGOVwR37v_2rBWzzxj-69" value="P-Payment Module&lt;div&gt;&lt;span style=&quot;background-color: initial;&quot;&gt;{T-Total Amount To Be Paid,&lt;/span&gt;&lt;span style=&quot;background-color: initial;&quot;&gt;P-Make Payment&lt;/span&gt;&lt;div&gt;E-Return to Mainmenu }&lt;/div&gt;&lt;div&gt;&lt;br&gt;&lt;/div&gt;&lt;/div&gt;" style="rounded=1;whiteSpace=wrap;html=1;" vertex="1" parent="1">
          <mxGeometry x="-235" y="390" width="410" height="80" as="geometry" />
        </mxCell>
        <mxCell id="4sgGOVwR37v_2rBWzzxj-78" value="" style="endArrow=none;html=1;rounded=0;" edge="1" parent="1">
          <mxGeometry width="50" height="50" relative="1" as="geometry">
            <mxPoint x="-34.32" y="533" as="sourcePoint" />
            <mxPoint x="-34.32" y="518" as="targetPoint" />
            <Array as="points">
              <mxPoint x="-34.32" y="473" />
            </Array>
          </mxGeometry>
        </mxCell>
        <mxCell id="4sgGOVwR37v_2rBWzzxj-82" value="" style="endArrow=none;html=1;rounded=0;" edge="1" parent="1">
          <mxGeometry width="50" height="50" relative="1" as="geometry">
            <mxPoint x="150" y="533" as="sourcePoint" />
            <mxPoint x="-210" y="533" as="targetPoint" />
          </mxGeometry>
        </mxCell>
        <mxCell id="4sgGOVwR37v_2rBWzzxj-85" value="" style="endArrow=classic;html=1;rounded=0;" edge="1" parent="1">
          <mxGeometry width="50" height="50" relative="1" as="geometry">
            <mxPoint x="-210" y="534" as="sourcePoint" />
            <mxPoint x="-210" y="594" as="targetPoint" />
          </mxGeometry>
        </mxCell>
        <mxCell id="4sgGOVwR37v_2rBWzzxj-86" value="" style="endArrow=classic;html=1;rounded=0;" edge="1" parent="1">
          <mxGeometry width="50" height="50" relative="1" as="geometry">
            <mxPoint x="-34" y="533" as="sourcePoint" />
            <mxPoint x="-34" y="593" as="targetPoint" />
          </mxGeometry>
        </mxCell>
        <mxCell id="4sgGOVwR37v_2rBWzzxj-89" value="" style="endArrow=classic;html=1;rounded=0;" edge="1" parent="1">
          <mxGeometry width="50" height="50" relative="1" as="geometry">
            <mxPoint x="150" y="534" as="sourcePoint" />
            <mxPoint x="150" y="594" as="targetPoint" />
          </mxGeometry>
        </mxCell>
        <mxCell id="4sgGOVwR37v_2rBWzzxj-90" value="P-Make Payment&lt;div&gt;&lt;font style=&quot;font-size: 6px;&quot;&gt;(select C-Cash or D-Card)&lt;/font&gt;&lt;/div&gt;" style="rounded=1;whiteSpace=wrap;html=1;" vertex="1" parent="1">
          <mxGeometry x="-90" y="594" width="120" height="92" as="geometry" />
        </mxCell>
        <mxCell id="4sgGOVwR37v_2rBWzzxj-91" value="R-Return&amp;nbsp; To Mainmenu" style="rounded=1;whiteSpace=wrap;html=1;" vertex="1" parent="1">
          <mxGeometry x="90" y="593" width="120" height="100" as="geometry" />
        </mxCell>
        <mxCell id="4sgGOVwR37v_2rBWzzxj-92" value="" style="rounded=1;whiteSpace=wrap;html=1;" vertex="1" parent="1">
          <mxGeometry x="250" y="351" width="520" height="489" as="geometry" />
        </mxCell>
        <mxCell id="4sgGOVwR37v_2rBWzzxj-94" value="&lt;font style=&quot;font-size: 12px;&quot;&gt;R-Report Module&lt;/font&gt;&lt;div&gt;&lt;font size=&quot;3&quot;&gt;(I-Invoice,D-Details,E-Return To MainMenu)&lt;/font&gt;&lt;/div&gt;" style="rounded=1;whiteSpace=wrap;html=1;" vertex="1" parent="1">
          <mxGeometry x="330" y="390" width="360" height="80" as="geometry" />
        </mxCell>
        <mxCell id="4sgGOVwR37v_2rBWzzxj-106" value="" style="endArrow=none;html=1;rounded=0;" edge="1" parent="1">
          <mxGeometry width="50" height="50" relative="1" as="geometry">
            <mxPoint x="508" y="534" as="sourcePoint" />
            <mxPoint x="508" y="519" as="targetPoint" />
            <Array as="points">
              <mxPoint x="508" y="474" />
            </Array>
          </mxGeometry>
        </mxCell>
        <mxCell id="4sgGOVwR37v_2rBWzzxj-107" value="Text" style="edgeLabel;html=1;align=center;verticalAlign=middle;resizable=0;points=[];" vertex="1" connectable="0" parent="4sgGOVwR37v_2rBWzzxj-106">
          <mxGeometry x="0.5407" y="-6" relative="1" as="geometry">
            <mxPoint x="430" y="15" as="offset" />
          </mxGeometry>
        </mxCell>
        <mxCell id="4sgGOVwR37v_2rBWzzxj-108" value="" style="endArrow=none;html=1;rounded=0;" edge="1" parent="1">
          <mxGeometry width="50" height="50" relative="1" as="geometry">
            <mxPoint x="671" y="536" as="sourcePoint" />
            <mxPoint x="324" y="536" as="targetPoint" />
          </mxGeometry>
        </mxCell>
        <mxCell id="4sgGOVwR37v_2rBWzzxj-109" value="" style="endArrow=classic;html=1;rounded=0;" edge="1" parent="1">
          <mxGeometry width="50" height="50" relative="1" as="geometry">
            <mxPoint x="324" y="537" as="sourcePoint" />
            <mxPoint x="324" y="597" as="targetPoint" />
          </mxGeometry>
        </mxCell>
        <mxCell id="4sgGOVwR37v_2rBWzzxj-110" value="" style="endArrow=classic;html=1;rounded=0;" edge="1" parent="1">
          <mxGeometry width="50" height="50" relative="1" as="geometry">
            <mxPoint x="507" y="537" as="sourcePoint" />
            <mxPoint x="507" y="597" as="targetPoint" />
          </mxGeometry>
        </mxCell>
        <mxCell id="4sgGOVwR37v_2rBWzzxj-111" value="" style="endArrow=classic;html=1;rounded=0;" edge="1" parent="1">
          <mxGeometry width="50" height="50" relative="1" as="geometry">
            <mxPoint x="670" y="538" as="sourcePoint" />
            <mxPoint x="670" y="598" as="targetPoint" />
          </mxGeometry>
        </mxCell>
        <mxCell id="4sgGOVwR37v_2rBWzzxj-112" value="I-Invoice" style="rounded=1;whiteSpace=wrap;html=1;" vertex="1" parent="1">
          <mxGeometry x="268" y="598" width="130" height="92" as="geometry" />
        </mxCell>
        <mxCell id="4sgGOVwR37v_2rBWzzxj-113" value="D-Details" style="rounded=1;whiteSpace=wrap;html=1;" vertex="1" parent="1">
          <mxGeometry x="449" y="598" width="130" height="92" as="geometry" />
        </mxCell>
        <mxCell id="4sgGOVwR37v_2rBWzzxj-114" value="E-Return To Mainmenu" style="rounded=1;whiteSpace=wrap;html=1;" vertex="1" parent="1">
          <mxGeometry x="606" y="600" width="120" height="92" as="geometry" />
        </mxCell>
        <mxCell id="4sgGOVwR37v_2rBWzzxj-115" value="" style="rounded=1;whiteSpace=wrap;html=1;" vertex="1" parent="1">
          <mxGeometry x="810" y="355" width="520" height="475" as="geometry" />
        </mxCell>
        <mxCell id="4sgGOVwR37v_2rBWzzxj-116" value="E-Quit Module" style="rounded=1;whiteSpace=wrap;html=1;" vertex="1" parent="1">
          <mxGeometry x="910" y="395" width="320" height="75" as="geometry" />
        </mxCell>
        <mxCell id="4sgGOVwR37v_2rBWzzxj-119" value="" style="endArrow=classic;html=1;rounded=0;entryX=1;entryY=0.25;entryDx=0;entryDy=0;" edge="1" parent="1">
          <mxGeometry width="50" height="50" relative="1" as="geometry">
            <mxPoint x="1069.52" y="470" as="sourcePoint" />
            <mxPoint x="1069.52" y="535" as="targetPoint" />
          </mxGeometry>
        </mxCell>
        <mxCell id="4sgGOVwR37v_2rBWzzxj-120" value="THANK YOU" style="rounded=1;whiteSpace=wrap;html=1;" vertex="1" parent="1">
          <mxGeometry x="1020" y="539" width="120" height="92" as="geometry" />
        </mxCell>
        <mxCell id="4sgGOVwR37v_2rBWzzxj-125" value="START" style="rounded=1;whiteSpace=wrap;html=1;" vertex="1" parent="1">
          <mxGeometry x="-40" y="-390" width="420" height="80" as="geometry" />
        </mxCell>
        <mxCell id="4sgGOVwR37v_2rBWzzxj-130" value="" style="endArrow=classic;html=1;rounded=0;" edge="1" parent="1">
          <mxGeometry width="50" height="50" relative="1" as="geometry">
            <mxPoint x="175" y="-300" as="sourcePoint" />
            <mxPoint x="175" y="-200" as="targetPoint" />
          </mxGeometry>
        </mxCell>
        <mxCell id="4sgGOVwR37v_2rBWzzxj-131" value="" style="endArrow=classic;html=1;rounded=0;" edge="1" parent="1">
          <mxGeometry width="50" height="50" relative="1" as="geometry">
            <mxPoint x="172" y="-89" as="sourcePoint" />
            <mxPoint x="172" y="11" as="targetPoint" />
          </mxGeometry>
        </mxCell>
        <mxCell id="4sgGOVwR37v_2rBWzzxj-132" value="" style="endArrow=none;html=1;rounded=0;" edge="1" parent="1">
          <mxGeometry width="50" height="50" relative="1" as="geometry">
            <mxPoint x="-570" y="240" as="sourcePoint" />
            <mxPoint x="1072.9630533854167" y="240" as="targetPoint" />
          </mxGeometry>
        </mxCell>
        <mxCell id="4sgGOVwR37v_2rBWzzxj-134" value="" style="endArrow=classic;html=1;rounded=0;" edge="1" parent="1">
          <mxGeometry width="50" height="50" relative="1" as="geometry">
            <mxPoint x="175" y="170" as="sourcePoint" />
            <mxPoint x="175" y="230" as="targetPoint" />
          </mxGeometry>
        </mxCell>
        <mxCell id="4sgGOVwR37v_2rBWzzxj-136" value="" style="endArrow=classic;html=1;rounded=0;" edge="1" parent="1">
          <mxGeometry width="50" height="50" relative="1" as="geometry">
            <mxPoint x="-571" y="240" as="sourcePoint" />
            <mxPoint x="-570.5600000000001" y="350" as="targetPoint" />
          </mxGeometry>
        </mxCell>
        <mxCell id="4sgGOVwR37v_2rBWzzxj-137" value="" style="endArrow=classic;html=1;rounded=0;" edge="1" parent="1">
          <mxGeometry width="50" height="50" relative="1" as="geometry">
            <mxPoint x="520" y="240" as="sourcePoint" />
            <mxPoint x="520" y="349" as="targetPoint" />
          </mxGeometry>
        </mxCell>
        <mxCell id="4sgGOVwR37v_2rBWzzxj-138" value="" style="endArrow=classic;html=1;rounded=0;" edge="1" parent="1">
          <mxGeometry width="50" height="50" relative="1" as="geometry">
            <mxPoint x="2" y="240" as="sourcePoint" />
            <mxPoint x="1.9999999999999538" y="350" as="targetPoint" />
          </mxGeometry>
        </mxCell>
        <mxCell id="4sgGOVwR37v_2rBWzzxj-139" value="" style="endArrow=classic;html=1;rounded=0;" edge="1" parent="1">
          <mxGeometry width="50" height="50" relative="1" as="geometry">
            <mxPoint x="1072" y="240" as="sourcePoint" />
            <mxPoint x="1071.58" y="350" as="targetPoint" />
          </mxGeometry>
        </mxCell>
        <mxCell id="4sgGOVwR37v_2rBWzzxj-143" value="" style="endArrow=none;html=1;rounded=0;entryX=0.422;entryY=0.993;entryDx=0;entryDy=0;entryPerimeter=0;" edge="1" parent="1">
          <mxGeometry width="50" height="50" relative="1" as="geometry">
            <mxPoint x="-31.380000000000003" y="686" as="sourcePoint" />
            <mxPoint x="-31.380000000000003" y="718.71" as="targetPoint" />
          </mxGeometry>
        </mxCell>
        <mxCell id="4sgGOVwR37v_2rBWzzxj-144" value="" style="endArrow=none;html=1;rounded=0;" edge="1" parent="1">
          <mxGeometry width="50" height="50" relative="1" as="geometry">
            <mxPoint x="-116" y="720" as="sourcePoint" />
            <mxPoint x="54" y="720" as="targetPoint" />
            <Array as="points" />
          </mxGeometry>
        </mxCell>
        <mxCell id="4sgGOVwR37v_2rBWzzxj-145" value="" style="endArrow=none;html=1;rounded=0;" edge="1" parent="1">
          <mxGeometry width="50" height="50" relative="1" as="geometry">
            <mxPoint x="-115.62" y="720" as="sourcePoint" />
            <mxPoint x="-116" y="749" as="targetPoint" />
          </mxGeometry>
        </mxCell>
        <mxCell id="4sgGOVwR37v_2rBWzzxj-147" value="" style="endArrow=none;html=1;rounded=0;" edge="1" parent="1">
          <mxGeometry width="50" height="50" relative="1" as="geometry">
            <mxPoint x="52.379999999999995" y="720" as="sourcePoint" />
            <mxPoint x="52" y="749" as="targetPoint" />
          </mxGeometry>
        </mxCell>
        <mxCell id="4sgGOVwR37v_2rBWzzxj-149" value="C-Cash&lt;div&gt;&lt;font style=&quot;font-size: 6px;&quot;&gt;Payment is To be&amp;nbsp; done By Cash&lt;/font&gt;&lt;/div&gt;" style="rounded=1;whiteSpace=wrap;html=1;" vertex="1" parent="1">
          <mxGeometry x="-165" y="750" width="100" height="40" as="geometry" />
        </mxCell>
        <mxCell id="4sgGOVwR37v_2rBWzzxj-150" value="D-Card&lt;div&gt;&lt;font style=&quot;font-size: 6px;&quot;&gt;Payment is to be done by card&lt;/font&gt;&lt;/div&gt;" style="rounded=1;whiteSpace=wrap;html=1;" vertex="1" parent="1">
          <mxGeometry y="750" width="100" height="40" as="geometry" />
        </mxCell>
      </root>
    </mxGraphModel>
  </diagram>
</mxfile>
